<svg version="1.1" xmlns="http://www.w3.org/2000/svg" viewBox="0 0 1343.208705357135 628.7403060422126" width="1343.208705357135" height="628.7403060422126">
  <!-- svg-source:excalidraw -->
  
  <defs>
    <style class="style-fonts">
      @font-face {
        font-family: "Virgil";
        src: url("https://excalidraw.com/Virgil.woff2");
      }
      @font-face {
        font-family: "Cascadia";
        src: url("https://excalidraw.com/Cascadia.woff2");
      }
    </style>
    
  </defs>
  <rect x="0" y="0" width="1343.208705357135" height="628.7403060422126" fill="#fdf8f6"></rect><g stroke-linecap="round"><g transform="translate(288.71942180424685 170.66742487996692) rotate(0 2.251254712947002 57.0228062890302)"><path d="M-0.73 -0.96 C-9.24 3.26, -19.88 9.66, -47.32 22.57 M0.97 -0.67 C-8.57 4.82, -18.97 9.86, -45.44 22.92 M-43.53 20.19 C-47.71 38.08, -53.9 56.23, -56.76 72.13 M-45.06 22.2 C-48.11 32.24, -49.26 44.36, -55.23 74.78 M-55.39 73.76 C-45.18 88.37, -34.32 102.96, -23.8 115.77 M-56.14 74.23 C-43.73 88.38, -33.55 102.79, -22.52 114.95 M-24.74 116.74 C-9.08 116.83, 8.51 117.84, 27.81 115.79 M-24.17 115.16 C-11.95 113.87, -0.49 115.86, 26.95 116.62 M29.46 115.16 C35.12 105.61, 44.7 94.88, 60.9 75.43 M27.47 115.58 C39.42 102.65, 49.22 88.15, 59.78 74.2 M59.81 74.98 C55.82 59.06, 53.54 38.28, 50.05 24.45 M61.26 73.77 C56.84 54.72, 52.99 37.23, 51.31 26.56 M51.69 27.68 C36.07 16.11, 15.4 6.79, 0.82 -3.02 M51.89 27.01 C40.16 20.81, 25.57 14.02, 1.94 -1.19" stroke="#aaa" stroke-width="4" fill="none"></path></g></g><mask></mask><g stroke-linecap="round"><g transform="translate(289.98152635617635 169.67418142968938) rotate(0 -0.10912286405778104 58.10400527205849)" fill-rule="evenodd"><path d="M1.09 -1.9 L-46.84 22.83 L-57.5 73.17 L-25.09 115.18 L24.35 116.51 L57.46 72.96 L45.55 21.71 L-1.84 -1.42" stroke="none" stroke-width="0" fill="#228be6" fill-rule="evenodd"></path><path d="M-0.04 -1.15 C-15.31 7.2, -29.42 13.62, -47.93 22.74 M0.68 0.43 C-12.88 6.77, -25.19 12.9, -45.72 21.58 M-44.52 21.18 C-49.52 35.04, -51.9 46.24, -59.02 75.36 M-46.9 21.7 C-48.2 34.77, -50.14 46.57, -56.74 74.14 M-57.82 73.94 C-51.01 83.7, -43.32 93.44, -24.55 114.98 M-56.47 74.14 C-46.42 88.94, -33.61 103.68, -25.52 115.31 M-27.09 116.2 C-13.44 116.51, -2.15 114.53, 24.24 117.36 M-26.18 113.95 C-8.69 115.72, 9.35 115.84, 25.21 115.13 M24.19 116.44 C36.95 101.3, 49.92 86.02, 58.78 71.8 M26.14 116.06 C35.72 102.14, 45.8 89.25, 58.81 72.82 M56.25 75.67 C52.83 52.34, 47.83 32.44, 48.74 22.8 M58.17 73.09 C54.3 61.18, 51.37 47.58, 47.31 22.28 M48.52 21.11 C30.93 14.79, 17.95 6.97, -0.99 -0.15 M47.83 22.81 C27.46 14.52, 10.78 4.91, -0.29 -0.34 M0 0 C0 0, 0 0, 0 0 M0 0 C0 0, 0 0, 0 0" stroke="#fff" stroke-width="2" fill="none"></path></g></g><mask></mask><g stroke-linecap="round" transform="translate(273.6457168111683 198.29399483480472) rotate(0 15.959919370226089 7.358467497798927)"><path d="M-0.82 -1.4 L32.77 -0.39 L33.03 15.21 L1.36 15.28" stroke="none" stroke-width="0" fill="#fff"></path><path d="M-1.51 0.82 C6.14 0.82, 14.19 0.77, 31.43 1.94 M-0.41 0.97 C7.43 0.85, 15.21 -0.71, 31.43 0.95 M31.05 0 C31.48 1.83, 30.68 7.37, 30.85 15.24 M32.06 0.62 C32.37 5.45, 32.13 9.82, 31.38 14.94 M30.82 15.24 C22 15.7, 14.27 14.8, 1.26 14.45 M31.28 15.01 C21.99 14.95, 10.7 15.21, -0.71 13.96 M0.33 16.15 C0.14 8.73, -0.88 4.33, 0.73 -1.39 M-0.72 15.28 C-0.52 10.24, -0.19 4.48, 0.52 0.62" stroke="#fff" stroke-width="2" fill="none"></path></g><g stroke-linecap="round" transform="translate(253.90712494207264 241.74872857180662) rotate(0 10.142752496966068 6.513238123051735)"><path d="M0.85 -0.39 L21.39 0.49 L21.64 13.59 L-1.88 13.37" stroke="none" stroke-width="0" fill="#fff"></path><path d="M-1.9 0.64 C3.02 0.5, 9.35 1.86, 18.96 1.35 M-0.03 0.99 C7.26 -0.77, 13.42 0.75, 19.42 0.76 M19.79 -1.15 C19.02 4.25, 19.26 7.01, 20.63 11.89 M20.79 0.57 C20.61 3.5, 19.83 6.84, 20.24 12.82 M19.71 14 C15.15 13.15, 9.19 12.81, 0.67 14.47 M21 13.17 C13.68 13.49, 6.23 12.33, 0.97 12.28 M0.03 12.9 C-0.91 9.42, 0.61 2.29, 0.47 -0.76 M-0.53 13.44 C-0.12 10.06, 0.59 8.25, -0.27 -0.46" stroke="#fff" stroke-width="2" fill="none"></path></g><g stroke-linecap="round" transform="translate(279.61204180938375 241.20181544697016) rotate(0 10.142752496966068 6.513238123051735)"><path d="M1.11 0.49 L21.64 0.56 L18.4 13.37 L-0.59 12.23" stroke="none" stroke-width="0" fill="#fff"></path><path d="M-1.9 0.59 C6.43 1.88, 12.51 1.29, 21.14 -0.81 M0.31 -0.58 C7.56 0.74, 15.24 0.56, 19.8 -0.59 M19.09 0.98 C19.29 4.37, 20.58 6.68, 19.7 13.27 M20.58 0.19 C19.91 5.2, 20.34 9.79, 20.31 12.67 M21.33 13.1 C14.92 12.85, 7.71 14.57, 0.58 11.75 M20.35 13.43 C12.88 12.3, 7.88 12.31, 0.65 13.25 M-0.88 14.18 C0.64 6.62, 0.47 1.91, -1.24 -1.28 M-0.25 12.73 C0.57 8.68, -0.16 2.77, 0.28 -0.13" stroke="#fff" stroke-width="2" fill="none"></path></g><g stroke-linecap="round" transform="translate(306.65938180129297 241.69900919682152) rotate(0 10.142752496966068 6.513238123051792)"><path d="M1.36 0.56 L18.4 0.35 L19.69 12.23 L1.1 13.97" stroke="none" stroke-width="0" fill="#fff"></path><path d="M-0.49 1.94 C5.4 1.29, 14.32 -0.87, 22.23 -0.05 M-0.49 0.95 C7.22 0.87, 15.69 -0.47, 20.28 -0.38 M19.34 0.47 C20.51 1.62, 19.58 5.75, 21.37 14.04 M19.81 0.2 C20.3 4.85, 20.37 9.76, 20.46 12.84 M21.54 12.75 C13.89 14.48, 6.72 11.76, 0.59 14.45 M19.57 12.27 C14.88 12.36, 8.18 13.34, 0.97 13.05 M0.64 11.79 C0.56 8.48, -1.15 4.19, 0.99 -1.07 M0.46 13.58 C-0.22 7.83, 0.33 3.41, 0.36 0.16" stroke="#fff" stroke-width="2" fill="none"></path></g><g stroke-linecap="round"><g transform="translate(290.55030430611214 212.71261358049185) rotate(0 0.049291860909306706 14.55520461157272)"><path d="M-1.33 1.35 C0.63 8.33, 1.55 18.22, 1.48 28.35 M-0.87 0.76 C-0.74 6.14, -0.38 13.08, -1.38 26.83" stroke="#fff" stroke-width="2" fill="none"></path></g></g><mask></mask><g stroke-linecap="round"><g transform="translate(265.20133199316024 316.301216072104) rotate(0 27.868259331416766 -7.459976264502416)"><path d="M0.56 -0.53 C1.94 -5.18, 2.56 -9.88, 0.74 -13.56 M-0.32 -0.38 C0.7 -5.36, 0.71 -10.81, 1.98 -13.4 M0.59 -12.55 C20.85 -11.41, 38.64 -12.55, 54.77 -15.89 M1.54 -13.48 C19.19 -13.54, 36.85 -13.23, 54.23 -13.79 M54.63 -15.38 C55.03 -9.06, 55.15 -5.73, 56 -0.48 M54.68 -14.25 C55.34 -11.02, 54.8 -8.18, 56.05 0.97" stroke="#fff" stroke-width="2" fill="none"></path></g></g><mask></mask><g transform="translate(272.31597201544446 254.7393502458359) rotate(0 15.679985046386719 12.5)"><text x="15.679985046386719" y="0" font-family="Virgil, Segoe UI Emoji" font-size="20px" fill="#fff" text-anchor="middle" style="white-space: pre;" direction="ltr" dominant-baseline="text-before-edge">svc</text></g><g stroke-linecap="round" transform="translate(10 162.4053308198495) rotate(0 313.2310267857142 153.28125)"><path d="M32 0 M32 0 C235.17 -1.18, 437.56 0.01, 594.46 0 M32 0 C177.42 -1.83, 322.62 -1.48, 594.46 0 M594.46 0 C616.24 1.74, 627.78 11.43, 626.46 32 M594.46 0 C615.92 0.63, 626.48 9.06, 626.46 32 M626.46 32 C628.13 84.49, 627 140.72, 626.46 274.56 M626.46 32 C627.35 103.72, 627.44 174.88, 626.46 274.56 M626.46 274.56 C628.16 294.28, 615.92 306.87, 594.46 306.56 M626.46 274.56 C627.06 295.44, 615.02 306.5, 594.46 306.56 M594.46 306.56 C445.23 304.48, 294.13 305.14, 32 306.56 M594.46 306.56 C432.62 308.51, 271.09 308.36, 32 306.56 M32 306.56 C12.2 306.68, -0.81 297.3, 0 274.56 M32 306.56 C10.04 306.44, 1.58 293.67, 0 274.56 M0 274.56 C1.94 219.42, 0.78 167, 0 32 M0 274.56 C-2.12 182.23, -2.4 90.25, 0 32 M0 32 C1.28 11.4, 12.55 -0.24, 32 0 M0 32 C1.64 12.85, 9.46 1.27, 32 0" stroke="#000000" stroke-width="1" fill="none"></path></g><g transform="translate(264.1005772181916 473.9231879627066) rotate(0 44.26995849609375 12.5)"><text x="44.26995849609375" y="0" font-family="Virgil, Segoe UI Emoji" font-size="20px" fill="#000000" text-anchor="middle" style="white-space: pre;" direction="ltr" dominant-baseline="text-before-edge">worker-01</text></g><g transform="translate(237.67745099748845 298.8339022484208) rotate(0 58.739959716796875 12.5)"><text x="58.739959716796875" y="0" font-family="Virgil, Segoe UI Emoji" font-size="20px" fill="#000000" text-anchor="middle" style="white-space: pre;" direction="ltr" dominant-baseline="text-before-edge">external LB</text></g><g mask="url(#mask-7ryQKInOkpFN2IGzt5yiT)" stroke-linecap="round"><g transform="translate(290.1785714285711 167.78479510556383) rotate(0 0.4892936945996098 -78.56332699922581)"><path d="M-0.48 0.66 C-0.49 -25.65, 0.66 -131.42, 0.71 -157.78 M1.46 -0.04 C1.26 -26.19, 0.38 -130.43, -0.07 -156.47" stroke="#000000" stroke-width="1" fill="none"></path></g><g transform="translate(290.1785714285711 167.78479510556383) rotate(0 0.4892936945996098 -78.56332699922581)"><path d="M11.63 -127.86 C5.95 -139.55, 2.54 -148.28, 1.71 -157.43 M10.36 -128.24 C6.33 -136.87, 2.81 -146.48, 0.73 -156.91" stroke="#000000" stroke-width="1" fill="none"></path></g><g transform="translate(290.1785714285711 167.78479510556383) rotate(0 0.4892936945996098 -78.56332699922581)"><path d="M-8.89 -127.61 C-7.12 -139.31, -3.08 -148.13, 1.71 -157.43 M-10.16 -127.99 C-7.24 -136.86, -3.82 -146.56, 0.73 -156.91" stroke="#000000" stroke-width="1" fill="none"></path></g></g><mask id="mask-7ryQKInOkpFN2IGzt5yiT"><rect x="0" y="0" fill="#fff" width="390.5580357142853" height="425.1397058198496"></rect><rect x="194.65835789271705" y="76.60733974842094" fill="#000" width="191.41989135742188" height="25" opacity="1"></rect></mask><g transform="translate(194.65835789271705 76.60733974842094) rotate(0 96.00950723045366 12.614128357917082)"><text x="95.70994567871094" y="0" font-family="Virgil, Segoe UI Emoji" font-size="20px" fill="#000000" text-anchor="middle" style="white-space: pre;" direction="ltr" dominant-baseline="text-before-edge">L2 Announce LB IP</text></g><g stroke-linecap="round" transform="translate(706.7466517857065 161.1218486769925) rotate(0 313.2310267857142 153.28125)"><path d="M32 0 M32 0 C208.78 -1.02, 387.61 -0.79, 594.46 0 M32 0 C251.1 -0.9, 470.47 -0.19, 594.46 0 M594.46 0 C616.35 1.31, 625.23 10.84, 626.46 32 M594.46 0 C615.63 0.36, 626.02 10.73, 626.46 32 M626.46 32 C625.17 106.45, 625.13 183.14, 626.46 274.56 M626.46 32 C625 97.6, 624.54 161.78, 626.46 274.56 M626.46 274.56 C626.64 297.81, 616.89 306.17, 594.46 306.56 M626.46 274.56 C624.89 295.08, 614.91 304.36, 594.46 306.56 M594.46 306.56 C431.11 306.33, 268.96 306.52, 32 306.56 M594.46 306.56 C461.07 307.58, 328.19 307.17, 32 306.56 M32 306.56 C10.37 306.29, -0.6 296.15, 0 274.56 M32 306.56 C12.03 308.36, -0.61 296.17, 0 274.56 M0 274.56 C-0.16 209.45, 2.52 147.13, 0 32 M0 274.56 C0.74 185.14, 0.96 95.84, 0 32 M0 32 C-1.23 12.23, 12.4 -1.57, 32 0 M0 32 C-1.07 10.53, 9.03 -1.68, 32 0" stroke="#000000" stroke-width="1" fill="none"></path></g><g stroke-linecap="round"><g transform="translate(308.20755767292394 501.1103028359678) rotate(0 2.400118335865727 58.45917365131862)"><path d="M0.4 -0.71 C-16.83 9.08, -34.46 14.5, -45.29 23.32 M-0.72 0.35 C-10.54 5.04, -19.86 9.07, -45.81 21.65 M-45.47 20.36 C-50.02 38.27, -53.18 55.64, -54.44 75.12 M-45.96 21.85 C-49.61 42.7, -53.49 60.49, -56.23 73.51 M-56.08 71.93 C-46.91 85.94, -36.55 95.62, -25.16 112.93 M-56.71 73.43 C-47.27 84.11, -40.55 92.95, -22.33 114.61 M-23.92 114.95 C-6.03 114.51, 6.18 116.61, 29.23 117.14 M-23.07 114.37 C-7.4 115.7, 9.58 115.46, 27.15 115.19 M29.4 117.63 C41.86 97.29, 53.67 83.88, 59.64 75.1 M27.64 115.8 C35.74 104.7, 45.52 93.46, 59.94 73.8 M61.51 76.06 C58.22 55.78, 54.92 38.96, 52.66 28.32 M61.03 74.61 C57.6 61.96, 55.61 49.04, 51.48 25.69 M52.74 25.57 C42.75 22.38, 31.42 14.85, 0 0.19 M52.93 25.92 C36.32 17.83, 20.85 8.91, 0.13 -0.37" stroke="#aaa" stroke-width="4" fill="none"></path></g></g><mask></mask><g stroke-linecap="round"><g transform="translate(309.469662224853 500.11705938569025) rotate(0 0.7752530220025164 57.14846218152712)" fill-rule="evenodd"><path d="M0.58 1.41 L-46.27 22.05 L-57.27 72.92 L-23.87 114.61 L26.46 113.78 L60.01 72.58 L46.1 20.54 L-0.15 -1.36" stroke="none" stroke-width="0" fill="#228be6" fill-rule="evenodd"></path><path d="M-0.34 1.38 C-12.91 4.19, -22.68 12.23, -47.47 22.55 M-0.22 0.34 C-10.08 4.7, -22.03 10.22, -45.75 22.29 M-47.23 21.39 C-51.04 40.68, -52.7 61.37, -55.62 75.35 M-46.6 23.15 C-51.03 41.06, -55.08 61.38, -57.31 74.24 M-57.71 74.21 C-46.32 86.03, -38.16 99.55, -26.8 114.83 M-56.29 74.28 C-48.11 85.95, -37.4 98.73, -25.58 113.96 M-23.72 114.5 C-9.05 116.45, 11.47 116.5, 26.13 113.73 M-26.44 115.9 C-5.95 115.76, 14.17 114.88, 26.56 115.29 M26.61 113.8 C37.55 100.79, 49.34 84.41, 57.47 73.56 M24.98 115.21 C35.31 103.41, 43.27 92.16, 59.01 73.73 M59.26 73.39 C54.93 56.78, 50.75 39.82, 46.35 19.99 M57.24 74.57 C53.82 59.19, 50.6 41.98, 45.99 21.01 M48.11 23.73 C33.03 15.06, 17.11 9.74, 0.06 -1.6 M46.47 22.06 C34.7 15.86, 22.74 11.78, -0.87 -0.15 M0 0 C0 0, 0 0, 0 0 M0 0 C0 0, 0 0, 0 0" stroke="#fff" stroke-width="2" fill="none"></path></g></g><mask></mask><g stroke-linecap="round"><g transform="translate(309.3040685738415 514.8119900741417) rotate(0 0.6653725720011607 35.16634224747068)" fill-rule="evenodd"><path d="M-0.24 -0.11 L-28.21 12.49 L-33.23 44.46 L-14.77 67.83 L17.42 68.95 L34.8 43.21 L28.51 11.97 L-0.04 1.74" stroke="none" stroke-width="0" fill="#fff" fill-rule="evenodd"></path><path d="M-1.53 -1.15 C-7.33 5.14, -16.34 7.69, -29.46 11.99 M0.82 -0.64 C-9.85 4.32, -18.62 9.24, -27.45 13.4 M-29.02 13.01 C-28.26 21.57, -29.77 28.78, -33.29 43.68 M-28.57 12.53 C-30.52 22.26, -32.41 32.18, -34.63 44.72 M-34.56 42.99 C-33.06 47.86, -28.45 54.66, -15.57 68.23 M-35.17 44.24 C-28.95 50.77, -24.96 56.31, -15.16 69.29 M-16.9 70.98 C-4.55 70.99, 4.15 68.1, 17.53 70.37 M-16.19 70 C-8.25 68.64, 1.36 69.24, 16.45 70.86 M15.51 71.48 C22.37 61.54, 30.01 50.69, 35.12 44.39 M16.26 69.42 C20.95 62.71, 27.81 55.87, 36.05 45.21 M36.5 45.58 C33.34 34.04, 29.34 17.62, 28.66 14.58 M34.91 45.63 C32.95 32.91, 30.09 21.59, 28.72 13.7 M29.25 13.33 C20.21 11.56, 13.85 5.09, -1.07 1.91 M28.23 12.85 C20.71 10.87, 13.5 6.52, -0.43 -0.73 M0 0 C0 0, 0 0, 0 0 M0 0 C0 0, 0 0, 0 0" stroke="#fff" stroke-width="2" fill="none"></path></g></g><mask></mask><g stroke-linecap="round"><g transform="translate(296.1932007873047 535.9061122895941) rotate(0 2.7083157059685163 4.653871891266505)" fill-rule="evenodd"><path d="M-0.29 0.92 L0.98 7.27 L7.16 8.93 L3.39 1.8 L1.89 1.55" stroke="none" stroke-width="0" fill="#228be6" fill-rule="evenodd"></path><path d="M0.04 0.46 C-0.51 2.56, -0.45 4.39, 0.28 6.44 M-0.13 -0.09 C0.16 2.25, 0.31 4.4, -0.21 6.39 M0.52 6.95 C1.87 7.8, 3.25 7.79, 5.2 9.14 M-0.02 6.47 C2.08 7.9, 4.28 8.93, 4.96 9.4 M4.51 8.76 C4.81 7.01, 5.35 4.06, 5.02 2.49 M5.59 9.4 C5.32 6.48, 5.54 4.08, 5.41 2.16 M5.74 2.09 C4.19 1, 3.2 1.17, 0.41 0.06 M5.23 1.61 C3.73 1.22, 1.79 0.96, 0.83 0.6 M0.6 0.52 C0.47 0.38, 0.35 0.27, -0.01 -0.05 M0.61 0.47 C0.49 0.35, 0.31 0.25, 0.04 0.02" stroke="#fff" stroke-width="1" fill="none"></path></g></g><mask></mask><g stroke-linecap="round"><g transform="translate(307.9808241376395 535.873093736792) rotate(0 -2.6631447506874792 4.610898847334852)" fill-rule="evenodd"><path d="M0.93 0.68 L-3.96 1.15 L-7.51 9.52 L0.99 7.73 L-1.96 1.77" stroke="none" stroke-width="0" fill="#228be6" fill-rule="evenodd"></path><path d="M-0.44 0.12 C-1.83 0.01, -2.63 0.73, -5.66 2.19 M0.08 0.04 C-1.19 0.38, -3.02 0.6, -5.99 1.55 M-5.26 2.28 C-5.06 3.45, -5.67 5.61, -4.74 9.17 M-5.92 1.84 C-5.69 3.32, -6.13 4.88, -5.44 9.59 M-5.87 9.49 C-4.35 8.53, -3.54 8.89, -0.01 6.52 M-5.51 9.23 C-4.09 8.71, -2.91 8.38, -0.32 6.47 M-0.08 6.03 C0.41 4.32, -0.41 1.2, 0.66 -0.37 M0.06 6.55 C0.14 4.69, 0.23 2.35, -0.3 -0.02 M0 0 C0 0, 0 0, 0 0 M0 0 C0 0, 0 0, 0 0" stroke="#fff" stroke-width="1" fill="none"></path></g></g><mask></mask><g stroke-linecap="round"><g transform="translate(296.62244197373184 535.1466855751466) rotate(0 5.552066013591002 0.03544755572926306)" fill-rule="evenodd"><path d="M1.91 -0.54 L3.55 1.62 L12.6 1.2 L3.53 -0.1 L-1.34 1.94" stroke="none" stroke-width="0" fill="#228be6" fill-rule="evenodd"></path><path d="M-0.39 -0.42 C2.24 0.46, 4.29 1.66, 5.18 1.39 M0.2 -0.01 C1.28 0.26, 2.91 0.74, 5.49 1.84 M6.04 1.3 C7.58 0.7, 10.31 0.24, 10.8 0 M5.64 1.61 C6.77 1.13, 8.63 0.88, 11.08 -0.16 M11.36 -0.3 C9.86 0.28, 9.21 -0.83, 5.18 -1.31 M11.49 0.02 C9.73 -0.19, 8 -1.24, 5.7 -1.64 M6.05 -1.77 C3.28 -1.74, 2.14 -0.9, 0.21 -0.36 M5.73 -1.63 C4.54 -1.32, 2.82 -1.08, 0.21 -0.11 M0 0 C0 0, 0 0, 0 0 M0 0 C0 0, 0 0, 0 0" stroke="#fff" stroke-width="1" fill="none"></path></g></g><mask></mask><g stroke-linecap="round"><g transform="translate(311.1333033908877 535.8970919826745) rotate(0 2.6733707651362693 4.985752308142253)" fill-rule="evenodd"><path d="M-1.99 0 L1.31 7.66 L3.29 11.25 L4.04 3.74 L-0.36 -0.96" stroke="none" stroke-width="0" fill="#228be6" fill-rule="evenodd"></path><path d="M0.23 -0.14 C0.2 2.64, -0.43 3.95, -0.14 6.77 M-0.26 -0.2 C-0.07 1.92, 0.01 4.39, 0.25 6.85 M0 6.25 C2.61 7.44, 3.44 8.65, 5.02 9.41 M-0.24 6.51 C1.87 7.63, 3.32 8.26, 4.97 9.3 M4.89 10.17 C5.62 7.03, 4.93 5.62, 5.23 1.81 M5.28 9.84 C5.16 7.66, 5.53 6.6, 5.61 1.9 M5.17 1.38 C4.88 1.26, 3.58 0.95, 0.24 0.96 M5.59 1.92 C3.87 1.47, 2.98 1.03, 0.75 0.39 M0.61 0.43 C0.41 0.39, 0.21 0.16, -0.02 0.06 M0.67 0.5 C0.43 0.35, 0.26 0.2, 0.04 -0.01" stroke="#fff" stroke-width="1" fill="none"></path></g></g><mask></mask><g stroke-linecap="round"><g transform="translate(322.9209267412225 535.8640734298724) rotate(0 -2.8193124576357604 4.812331443771797)" fill-rule="evenodd"><path d="M1.26 1.07 L-7.84 3.46 L-6.85 11.45 L-1.25 5.21 L-1.8 -1.94" stroke="none" stroke-width="0" fill="#228be6" fill-rule="evenodd"></path><path d="M0.21 0.5 C-1.72 0.13, -2.85 0.93, -5.79 2.11 M-0.12 -0.14 C-1.83 0.71, -3.32 1.21, -5.65 1.94 M-5.1 1.34 C-6.49 3.45, -6 5.45, -5.21 9.76 M-5.81 1.77 C-6.19 3.63, -6.1 6.09, -5.53 9.52 M-5.26 9.38 C-4.6 9.34, -3.21 8.16, -0.83 6.94 M-5.57 9.32 C-3.92 8.92, -2.56 8.03, -0.54 6.94 M0.4 6.29 C0.09 4.14, -0.59 3.1, -0.2 0.54 M-0.56 6.63 C0.02 3.99, 0.05 1.45, -0.02 -0.08 M0 0 C0 0, 0 0, 0 0 M0 0 C0 0, 0 0, 0 0" stroke="#fff" stroke-width="1" fill="none"></path></g></g><mask></mask><g stroke-linecap="round"><g transform="translate(311.56254457731393 535.1376652682272) rotate(0 5.590809496582779 -0.31637626456506496)" fill-rule="evenodd"><path d="M-1.96 1.77 L4.21 3.56 L10.36 -1.31 L3.7 -3.81 L0.13 0.76" stroke="none" stroke-width="0" fill="#228be6" fill-rule="evenodd"></path><path d="M-0.37 -0.23 C1.39 0.56, 3.17 1.25, 5.53 1.16 M-0.06 0.23 C1.5 0.64, 2.87 1.04, 5.39 1.59 M5.01 1.49 C6.71 1.21, 8.58 1.11, 11.32 -0.46 M5.28 1.33 C6.85 1.02, 8.71 0.8, 11.13 -0.01 M11.02 0.68 C8.93 -0.66, 6.19 -1.14, 5.28 -1.82 M11.55 0.36 C9.23 -0.61, 6.46 -1.19, 5.55 -2 M5.71 -2.23 C3.88 -0.93, 2.98 -0.62, 0.47 0.48 M5.71 -1.98 C3.7 -1.32, 1.61 -0.63, -0.04 -0.05 M0 0 C0 0, 0 0, 0 0 M0 0 C0 0, 0 0, 0 0" stroke="#fff" stroke-width="1" fill="none"></path></g></g><mask></mask><g stroke-linecap="round"><g transform="translate(303.65427977043873 522.2159512135606) rotate(0 2.876604906143484 4.796398234932326)" fill-rule="evenodd"><path d="M-1.34 1.94 L-0.94 5.15 L3.45 7.54 L5.51 2.56 L-0.21 1.7" stroke="none" stroke-width="0" fill="#228be6" fill-rule="evenodd"></path><path d="M-0.19 0.18 C0.07 2.97, -0.02 4.51, -0.35 6.33 M0.2 0.26 C0.25 1.96, -0.17 3.34, -0.14 6.91 M-0.18 6.52 C1.59 7.53, 2.66 7.49, 5.1 9.58 M-0.23 6.41 C1.68 7.57, 3.14 8.34, 5.52 9.6 M5.1 9.48 C4.6 7.71, 5.1 5.27, 6.1 1.64 M5.47 9.58 C4.87 8.02, 5.32 5.67, 5.06 2.18 M4.99 2.28 C4.07 1.85, 3.45 1.53, 0.88 0.04 M5.51 1.71 C3.96 1.34, 2.55 0.96, 0.48 0.39 M0.61 0.54 C0.41 0.34, 0.22 0.21, 0.04 -0.01 M0.67 0.47 C0.37 0.32, 0.22 0.17, -0.04 0.03" stroke="#fff" stroke-width="1" fill="none"></path></g></g><mask></mask><g stroke-linecap="round"><g transform="translate(315.44190312077353 522.1829326607588) rotate(0 -2.958851209803697 4.793640121815599)" fill-rule="evenodd"><path d="M-0.98 -1.44 L-7.67 -0.25 L-5.39 10.27 L-1.1 7.87 L1.74 0.59" stroke="none" stroke-width="0" fill="#228be6" fill-rule="evenodd"></path><path d="M0.08 0.42 C-1.55 -0.02, -3.44 0.66, -6.15 1.56 M0.23 0.25 C-2.38 0.66, -4.61 1.63, -6.01 1.42 M-5.57 1.94 C-5.83 3.09, -5.9 6.18, -5.36 8.82 M-5.89 1.7 C-6.15 3.1, -5.45 5.04, -5.6 9.31 M-6.08 9.8 C-3.67 8.44, -0.86 7.16, -0.64 7.05 M-5.79 9.79 C-3.52 8.3, -1.87 7.66, -0.43 6.76 M-0.46 7.19 C0.39 5.62, 0.25 2.89, -0.04 0.48 M-0.28 6.58 C-0.27 4.85, -0.36 3.05, 0.21 -0.21 M0 0 C0 0, 0 0, 0 0 M0 0 C0 0, 0 0, 0 0" stroke="#fff" stroke-width="1" fill="none"></path></g></g><mask></mask><g stroke-linecap="round"><g transform="translate(304.08352095686496 521.4565244991134) rotate(0 5.692939312305953 -0.06879240430549771)" fill-rule="evenodd"><path d="M-1.8 -1.94 L5.67 2.38 L10.5 1.35 L7.24 -1.27 L0.01 -0.97" stroke="none" stroke-width="0" fill="#228be6" fill-rule="evenodd"></path><path d="M-0.01 -0.45 C1.47 0.27, 3.38 0.9, 6 1.97 M-0.16 -0.02 C1.95 0.85, 4.09 0.92, 5.48 1.51 M5.52 1.03 C7.06 1.28, 9 0.21, 10.76 -0.43 M5.34 1.48 C7.2 1.39, 8.26 0.75, 11.61 0.07 M11.13 0.18 C10.18 -0.57, 7.46 -0.63, 5.95 -1.51 M11.39 0 C9.19 -0.16, 7.37 -1.01, 5.3 -2.11 M5.97 -1.39 C3.6 -1.6, 1.09 0.08, -0.22 0.3 M5.46 -1.92 C3.88 -1.5, 2.79 -1.08, -0.13 -0.08 M0 0 C0 0, 0 0, 0 0 M0 0 C0 0, 0 0, 0 0" stroke="#fff" stroke-width="1" fill="none"></path></g></g><mask></mask><g stroke-linecap="round" transform="translate(294.666887493805 549.0557742448198) rotate(0 5.08672262349387 5.152442554029875)"><path d="M4.9 0.71 C6.11 0.6, 7.38 1.05, 8.34 1.39 C9.3 1.74, 10.42 1.96, 10.67 2.77 C10.91 3.58, 10.14 5.2, 9.82 6.26 C9.49 7.32, 9.77 8.5, 8.7 9.13 C7.63 9.76, 4.7 10.14, 3.39 10.02 C2.09 9.9, 1.36 9.16, 0.86 8.42 C0.36 7.67, 0.35 6.81, 0.39 5.56 C0.43 4.31, 0.47 1.81, 1.1 0.92 C1.73 0.03, 3.52 0.5, 4.16 0.22 C4.8 -0.06, 5.04 -0.67, 4.93 -0.77 M2.51 -0.47 C3.72 -0.75, 7.27 0.63, 8.4 1.04 C9.52 1.46, 8.77 1.19, 9.27 2.01 C9.77 2.83, 11.57 5.01, 11.39 5.98 C11.21 6.95, 9.16 7.2, 8.19 7.83 C7.22 8.46, 6.64 9.36, 5.57 9.78 C4.5 10.2, 2.73 11.16, 1.76 10.35 C0.78 9.53, -0.27 6.02, -0.26 4.87 C-0.25 3.72, 1.03 4.17, 1.81 3.47 C2.59 2.76, 4.37 0.93, 4.44 0.64 C4.51 0.36, 2.29 1.85, 2.2 1.75" stroke="#228be6" stroke-width="2" fill="none"></path></g><g stroke-linecap="round"><g transform="translate(299.76675410340613 549.2135020781066) rotate(0 0.3743742613894483 -0.4576113584726329)"><path d="M-0.46 -0.53 C-0.25 -0.6, 0.03 -0.99, 0.33 -1.08 M1.5 1.8 C1.61 1.48, -0.66 -1.93, -0.75 -2.71" stroke="#228be6" stroke-width="2" fill="none"></path></g></g><mask></mask><g stroke-linecap="round"><g transform="translate(303.15790251906856 550.1335811056119) rotate(0 1.2528721304047394 -0.2455027848927216)"><path d="M-0.25 0.94 C0.28 1.06, 2.23 0.3, 2.76 0.18 M1.82 0.39 C2.3 0.23, 2.06 -1.11, 2.2 -1.44" stroke="#228be6" stroke-width="2" fill="none"></path></g></g><mask></mask><g stroke-linecap="round"><g transform="translate(304.4460131575761 554.1030649099921) rotate(0 1.6065071345976776 0.6973304371949212)"><path d="M0.73 0.95 C1.37 1.04, 3.34 1.61, 3.55 1.52 M-0.34 0.4 C0.24 0.09, 2.87 -0.29, 3.08 -0.07" stroke="#228be6" stroke-width="2" fill="none"></path></g></g><mask></mask><g stroke-linecap="round"><g transform="translate(303.55222210228476 558.0462607421578) rotate(0 1.5163415125066422 1.788598137852489)"><path d="M0.9 1 C0.9 1.11, 0.78 1.3, 0.75 1.61 M-0.09 0.48 C0.24 0.7, 3.18 2.98, 3.12 3.1" stroke="#228be6" stroke-width="2" fill="none"></path></g></g><mask></mask><g stroke-linecap="round"><g transform="translate(299.63531424233406 559.4395232695231) rotate(0 0.2804378517682835 1.1298042513812447)"><path d="M-0.64 -0.1 C-0.96 0.31, -0.96 3.24, -1 3.45 M1.22 -1.19 C1.22 -0.56, 1.88 1.43, 1.36 1.95" stroke="#228be6" stroke-width="2" fill="none"></path></g></g><mask></mask><g stroke-linecap="round"><g transform="translate(296.5596214932448 557.6256531867268) rotate(0 -1.189565501839752 1.343777568591264)"><path d="M-0.68 1.19 C-0.96 1.36, -2.09 0.88, -2.32 0.95 M1.16 0.77 C0.74 1.06, -2.86 1.61, -3.54 1.92" stroke="#228be6" stroke-width="2" fill="none"></path></g></g><mask></mask><g stroke-linecap="round"><g transform="translate(295.3503747713803 554.0767769377776) rotate(0 -1.6997793068819647 0.03693543580160963)"><path d="M-0.53 -1.08 C-1.03 -1.35, -3.2 -0.72, -3.71 -0.46 M1.39 0.97 C0.77 1.37, -3.82 1.27, -4.79 0.83" stroke="#228be6" stroke-width="2" fill="none"></path></g></g><mask></mask><g stroke-linecap="round"><g transform="translate(297.111668909748 550.265020966684) rotate(0 -0.6930231068558896 -1.07770012930294)"><path d="M-0.26 -0.46 C-0.54 -0.29, -1.93 -0.04, -2.16 -0.06 M1.8 -1.75 C1.4 -1.85, -2.52 -2.35, -3.18 -1.94" stroke="#228be6" stroke-width="2" fill="none"></path></g></g><mask></mask><g stroke-linecap="round" transform="translate(307.9057366635516 552.8594374125344) rotate(0 7.8500956972045515 7.951518122233011)"><path d="M8.84 0.28 C10.48 0.45, 13.01 0.77, 13.99 1.87 C14.97 2.97, 14.84 5.06, 14.73 6.9 C14.62 8.74, 14.23 11.58, 13.33 12.94 C12.43 14.3, 10.99 14.58, 9.36 15.06 C7.73 15.54, 4.96 16.55, 3.55 15.8 C2.15 15.05, 1.55 12.15, 0.94 10.56 C0.34 8.96, -0.53 7.81, -0.08 6.23 C0.37 4.66, 2.04 2.02, 3.63 1.13 C5.22 0.24, 8.2 0.9, 9.46 0.91 C10.73 0.92, 10.94 1.19, 11.22 1.2 M6.3 0.8 C7.39 0.25, 7.94 1.54, 9.4 2 C10.85 2.46, 14.21 2.05, 15.02 3.56 C15.83 5.08, 14.78 9.24, 14.25 11.1 C13.73 12.97, 13.13 14.16, 11.86 14.77 C10.59 15.37, 7.94 14.94, 6.64 14.72 C5.34 14.49, 4.94 14.16, 4.05 13.42 C3.16 12.68, 1.56 11.76, 1.29 10.28 C1.02 8.79, 1.96 6.16, 2.43 4.5 C2.89 2.83, 3.39 1.05, 4.08 0.29 C4.77 -0.46, 6.15 -0.08, 6.55 -0.04" stroke="#228be6" stroke-width="2" fill="none"></path></g><g stroke-linecap="round"><g transform="translate(315.77611684576186 553.1028512326027) rotate(0 0.462521984787827 -1.73859293845166)"><path d="M0.38 -0.05 C0.36 -0.7, -0.41 -2.96, -0.29 -3.43 M-0.87 -1.11 C-0.54 -1.63, 1.58 -2, 1.8 -2.06" stroke="#228be6" stroke-width="2" fill="none"></path></g></g><mask></mask><g stroke-linecap="round"><g transform="translate(321.009513977232 554.5227651830014) rotate(0 1.075103012590489 -1.6226973468378105)"><path d="M-1.18 -0.31 C-0.69 -0.46, 2.79 -0.6, 3.33 -0.94 M0.4 -1.52 C0.71 -2.05, 1.83 -2.92, 2.5 -2.94" stroke="#228be6" stroke-width="2" fill="none"></path></g></g><mask></mask><g stroke-linecap="round"><g transform="translate(322.99739350778964 560.648679654722) rotate(0 2.0285169737510387 -0.051417060356271804)"><path d="M0.21 0.24 C0.91 0.23, 2.58 -0.32, 3.04 -0.35 M-1.14 -0.68 C0.03 -0.56, 4.13 0.3, 5.2 0.58" stroke="#228be6" stroke-width="2" fill="none"></path></g></g><mask></mask><g stroke-linecap="round"><g transform="translate(321.6180485274026 566.7340251564308) rotate(0 1.045360985256366 0.9526982069058363)"><path d="M-1.06 -1.16 C-0.92 -0.88, 0.5 1.27, 1.03 1.91 M0.59 0.85 C1.06 1.25, 3.03 2.54, 3.15 3.06" stroke="#228be6" stroke-width="2" fill="none"></path></g></g><mask></mask><g stroke-linecap="round"><g transform="translate(315.573271995705 568.8841805670347) rotate(0 -0.5101125942355793 2.1821378290204905)"><path d="M-1.12 -0.73 C-1.04 0.05, -0.5 2.92, -0.53 3.53 M0.49 1.5 C0.51 2.6, -1.61 4.69, -1.5 5.09" stroke="#228be6" stroke-width="2" fill="none"></path></g></g><mask></mask><g stroke-linecap="round"><g transform="translate(310.8267025043724 566.0849216362485) rotate(0 -1.824139199374713 1.4086552814548838)"><path d="M-0.05 0.04 C-0.46 0.59, -3.33 1.96, -3.6 2.56 M-1.53 -0.98 C-1.47 -0.21, -1.28 3.37, -1.33 3.8" stroke="#228be6" stroke-width="2" fill="none"></path></g></g><mask></mask><g stroke-linecap="round"><g transform="translate(308.9605298838478 560.6081106847105) rotate(0 -1.8478263100405456 0.20740603831598037)"><path d="M-0.84 -0.57 C-1.54 -0.49, -3.44 0.52, -4.23 0.52 M0.91 1.75 C0.16 1.46, -3.38 -1.11, -4.61 -1.34" stroke="#228be6" stroke-width="2" fill="none"></path></g></g><mask></mask><g stroke-linecap="round"><g transform="translate(311.6786508746118 554.7256100330585) rotate(0 -1.6967151595947598 -0.45669334174908727)"><path d="M1.08 0.52 C0.66 0.37, -2.87 -1.17, -3.39 -1.43 M0.19 -0.26 C-0.34 -0.2, -4.07 -0.28, -4.48 -0.22" stroke="#228be6" stroke-width="2" fill="none"></path></g></g><mask></mask><g transform="translate(289.1197693998024 584.4233104172388) rotate(0 20.857101440429688 12.20488343145621)"><text x="20.857101440429688" y="0" font-family="Virgil, Segoe UI Emoji" font-size="19.527813490329915px" fill="#fff" text-anchor="middle" style="white-space: pre;" direction="ltr" dominant-baseline="text-before-edge">node</text></g><g stroke-linecap="round"><g transform="translate(976.990138072963 222.24076944263982) rotate(0 2.662959375202945 57.41545757981436)"><path d="M-0.87 0.15 C-14.55 9.61, -32.51 15.99, -43.76 22.69 M-0.15 -0.86 C-15.06 7, -31.86 14.92, -46.29 22.11 M-45.51 22.25 C-49.77 31.82, -50.93 46.95, -55.29 73.86 M-44.52 21.2 C-48.49 36.65, -51.01 52.43, -55.96 73.68 M-54.26 74.09 C-43.59 88.83, -29.18 105.08, -22.1 114.03 M-55.04 74.16 C-45.98 86.9, -34.05 101.32, -24.21 113.9 M-21.88 113.34 C-9.5 115.63, 4.79 114.98, 27.95 116.51 M-22.59 113.94 C-6.45 115.88, 8.51 115.63, 27.55 115.51 M29.47 115.07 C38.92 99.86, 52.35 86.5, 60.97 75.81 M27.82 115.14 C38.27 104.73, 47.87 91.99, 59.52 74.39 M58.63 72.57 C58.78 59.51, 55.5 50.33, 52.52 26.86 M61.28 75.01 C56.46 56.22, 54.14 37, 52.7 26.03 M52.88 24.57 C40.07 21.17, 30.72 15.26, 1.02 0.71 M52.19 25.88 C32.76 16.62, 15.4 5.76, 0.18 -1.68" stroke="#aaa" stroke-width="4" fill="none"></path></g></g><mask></mask><g stroke-linecap="round"><g transform="translate(978.2522426248925 221.24752599236228) rotate(0 0.3681845310204608 58.28466815643543)" fill-rule="evenodd"><path d="M1.66 -1.87 L-47.13 22.05 L-57.98 72.56 L-23.67 113.43 L25.28 116.27 L58.31 73.94 L46.2 20.4 L-0.26 -1.17" stroke="none" stroke-width="0" fill="#228be6" fill-rule="evenodd"></path><path d="M1.42 1.48 C-18.78 8.89, -34.66 18.22, -45.07 22.05 M0.75 -0.39 C-11.64 4.98, -23.6 10.71, -46.77 22.03 M-47.92 20.4 C-49.3 35.77, -50.5 46.03, -57.34 74.29 M-46.12 21.7 C-47.99 35.68, -51.34 48.86, -56.23 74.64 M-58.08 72.38 C-48.75 82.2, -40.61 92.65, -24.97 113.95 M-57.82 73.27 C-47.29 85.82, -39.68 96.38, -25.81 114.37 M-26.04 115.51 C-9.53 115.13, 7.38 116.25, 25.9 117.43 M-24.91 115.72 C-9.65 115.75, 6.97 115.31, 26.34 116.19 M24.77 114.99 C33.76 107.03, 42.07 96.57, 58.01 72.15 M26.34 116.35 C35.27 104.72, 42.26 93.61, 57.92 73.55 M58.81 72.01 C55.29 62.04, 53.28 46.95, 48.71 23.95 M58.04 74.5 C55.67 60.8, 52.7 46.98, 46.13 21.05 M46.17 23.19 C36.36 17.51, 23.21 12.41, 1.26 0.61 M46.27 22.11 C32.26 13.95, 15.84 7.11, 0.68 -0.86 M0 0 C0 0, 0 0, 0 0 M0 0 C0 0, 0 0, 0 0" stroke="#fff" stroke-width="2" fill="none"></path></g></g><mask></mask><g stroke-linecap="round" transform="translate(961.9164330798844 249.86733939747762) rotate(0 15.959919370226089 7.358467497798927)"><path d="M-0.91 -0.82 L31.32 0.39 L33.66 15.28 L1.73 14.5" stroke="none" stroke-width="0" fill="#fff"></path><path d="M-0.57 0.14 C11.47 0.52, 20.59 -0.34, 30.85 -0.3 M-0.25 -0.09 C5.98 0.3, 12.94 0, 31.23 -0.04 M31.43 1.21 C32.31 4.61, 31.67 9.61, 31.35 16.04 M32.28 0.08 C31.94 3.17, 32.61 7.24, 31.47 15.36 M32.46 13.3 C23.17 13.71, 12.77 13.53, -0.27 16.65 M32.37 15.01 C20.51 13.63, 10.86 14, 0.2 15.39 M-0.25 14.44 C0.16 11.77, 0.26 9.4, 0.3 0.93 M-0.33 14.85 C-0.26 11.22, 0.45 8.86, -0.37 0.62" stroke="#fff" stroke-width="2" fill="none"></path></g><g stroke-linecap="round" transform="translate(942.1778412107888 293.3220731344795) rotate(0 10.142752496966068 6.513238123051735)"><path d="M-0.6 0.39 L22.02 0.56 L22.02 12.81 L-1.53 12.41" stroke="none" stroke-width="0" fill="#fff"></path><path d="M1.66 0.75 C8.54 -0.12, 14.1 -0.32, 18.57 1.51 M-0.87 0.18 C4.56 -0.11, 9.92 -0.02, 20.44 -0.95 M20.75 -0.03 C20.15 3.05, 19.74 6.7, 19.33 12.91 M20.32 -0.14 C20.98 3.82, 19.95 7.19, 20.35 12.74 M21.41 12.25 C16.32 11.93, 10.83 14.82, 0.53 11.78 M19.3 12.12 C15.16 12.56, 10.68 13.76, -0.73 12.8 M0.11 13.37 C0.22 9.92, 0.28 5.25, -1.12 0.89 M-0.14 12.72 C0.54 8.45, -0.27 3.64, -0.3 -0.27" stroke="#fff" stroke-width="2" fill="none"></path></g><g stroke-linecap="round" transform="translate(967.8827580780999 292.77516000964306) rotate(0 10.142752496966068 6.513238123051735)"><path d="M1.74 0.56 L22.02 -0.22 L18.76 12.41 L0.11 11.35" stroke="none" stroke-width="0" fill="#fff"></path><path d="M0.96 -0.11 C5.16 -0.38, 10.74 1.43, 19.51 -0.51 M-0.74 -0.12 C5.21 -0.08, 11.96 -0.98, 19.41 -0.33 M20.19 0.29 C19.83 6.15, 19.37 9.84, 19.69 13.67 M20.91 0.51 C19.89 4.61, 20.35 7.8, 19.81 13.2 M20.91 12.07 C15.37 14.89, 11.52 11.7, -1.16 13.93 M20.07 12.5 C13.81 13.52, 6.19 12.62, 0.3 12.86 M0.2 14.23 C0.25 10.19, -1.13 6.58, 1.06 -0.59 M0.48 13.42 C-0.3 9.43, -0.27 4.46, -0.2 0.13" stroke="#fff" stroke-width="2" fill="none"></path></g><g stroke-linecap="round" transform="translate(994.9300980700095 293.2723537594944) rotate(0 10.142752496966068 6.513238123051792)"><path d="M1.73 -0.22 L18.76 -0.61 L20.39 11.35 L1.5 14.55" stroke="none" stroke-width="0" fill="#fff"></path><path d="M-1.07 -0.3 C5.14 1.52, 12.93 -0.5, 20.1 -1.74 M-0.69 -0.04 C6.6 -0.92, 12.01 -0.31, 21.11 0.36 M19.78 1.17 C19.32 3.77, 19.68 8.4, 20.42 13.09 M19.89 0.57 C20.47 3.34, 19.93 7.43, 19.82 13.39 M20.01 14.96 C15.51 11.68, 8.52 13.83, 0.59 11.05 M20.49 13.7 C15.3 12.69, 12.08 12.75, -0.19 13.11 M0.26 13.85 C-1.14 9.66, 1.04 3.93, 0.24 -0.29 M-0.33 13.58 C-0.39 9.47, -0.29 6.57, 0.57 0.18" stroke="#fff" stroke-width="2" fill="none"></path></g><g stroke-linecap="round"><g transform="translate(978.8210205748283 264.28595814316475) rotate(0 -0.7778525231406093 13.36240749929408)"><path d="M-1.71 1.51 C-1.07 7.67, -0.62 14.61, -0.14 26.25 M0.16 -0.95 C-1.21 7.64, 0.35 16.31, -0.52 27.67" stroke="#fff" stroke-width="2" fill="none"></path></g></g><mask></mask><g stroke-linecap="round"><g transform="translate(950.4809768333052 292.3276856347769) rotate(0 27.75430231788141 -7.369639659238771)"><path d="M-0.5 -0.33 C0.42 -4.82, 1.19 -8.34, 1.33 -13.82 M-0.57 -0.22 C0.96 -3.57, 0.85 -7.68, 1.63 -13.18 M0.58 -11.94 C22.27 -13.36, 42.19 -12.12, 55.77 -15.64 M0.75 -12.66 C21.21 -12.71, 41.97 -13.54, 53.72 -14.55 M53.32 -13.74 C55.15 -9.94, 53.82 -2.82, 54.59 0.9 M54.42 -14.55 C54.38 -8.83, 55.16 -3.27, 56.08 0.75" stroke="#fff" stroke-width="2" fill="none"></path></g></g><mask></mask><g transform="translate(960.586688284161 306.3126948085088) rotate(0 15.679985046386719 12.5)"><text x="15.679985046386719" y="0" font-family="Virgil, Segoe UI Emoji" font-size="20px" fill="#fff" text-anchor="middle" style="white-space: pre;" direction="ltr" dominant-baseline="text-before-edge">svc</text></g><g stroke-linecap="round"><g transform="translate(1015.0552388069846 500.04568142529354) rotate(0 3.4246589390265854 57.260102334939404)"><path d="M-1.54 1.05 C-11.39 6.3, -27.11 11.66, -44.53 22.07 M-0.74 0.26 C-11.64 5.57, -23.09 11.09, -45.34 22.68 M-45.1 22.2 C-48.12 40.45, -51.92 58.24, -55.22 73.06 M-44.64 22.77 C-48.52 36.17, -50.98 51.38, -55.26 73.91 M-55.21 74.82 C-43.18 88.59, -30.81 107.42, -23.8 115.96 M-55.18 73.8 C-45.72 84.31, -38.2 96.27, -22.65 115.28 M-23.31 114.24 C-8.09 116.8, 7.06 114.45, 27.15 115.76 M-23.4 114.88 C-10.8 115.01, 2.78 115.35, 27.92 116.21 M29.74 115.24 C42 100.13, 52.14 83.07, 59.08 72.64 M28.56 115.3 C37.12 103.43, 48.58 89.87, 60.5 74.22 M62.11 72.78 C56.96 60.12, 56.54 46.23, 52.86 25.25 M59.61 73.94 C57.74 57.87, 54.18 40.42, 52.94 25.46 M50.38 25.29 C36.46 20.17, 21.86 12.23, 2.22 -1.69 M50.99 25.81 C32.09 15.7, 13.23 3.64, 0.15 -0.53" stroke="#aaa" stroke-width="4" fill="none"></path></g></g><mask></mask><g stroke-linecap="round"><g transform="translate(1016.3173433589127 499.052437975016) rotate(0 0.48491983386361426 57.83852739029163)" fill-rule="evenodd"><path d="M0.14 -0.62 L-47.23 22 L-55.77 72.29 L-26.69 115.46 L27.02 114.57 L58.41 71.88 L47.79 20.82 L1.52 2" stroke="none" stroke-width="0" fill="#228be6" fill-rule="evenodd"></path><path d="M1.66 -0.27 C-16.67 6.48, -30.59 15.45, -46.88 22.33 M0.03 -0.3 C-15.94 7.42, -32.2 16.32, -45.47 22.54 M-45.17 22.11 C-49.24 40.54, -53.41 59.57, -57.42 74.36 M-46.2 21.41 C-48.38 36.41, -51.23 51.66, -56.23 73.68 M-57.3 72.33 C-48.23 87.19, -38.5 99.67, -26.01 115.76 M-56.23 73.17 C-45.08 89.89, -31.44 106.64, -25.46 115.42 M-26.43 116.16 C-15.7 113.74, -3.11 115.13, 24.52 116.65 M-25.75 115.02 C-7.42 115.26, 9.21 115.55, 26.51 116.37 M27.35 116.49 C37.27 99.31, 49.83 80.93, 58.23 72.11 M24.81 115.93 C38.96 98.71, 51.02 83, 58.25 74.64 M57.8 74.21 C56.77 62.27, 53.23 47.65, 47.79 21.68 M58.39 73.89 C54.25 55.07, 51.79 37.09, 46.79 22.5 M46.3 23.61 C31.23 16.18, 17.45 6.79, 1.76 0.83 M46.92 22.5 C38.64 16.47, 27.41 13.55, 0.67 -0.97 M0 0 C0 0, 0 0, 0 0 M0 0 C0 0, 0 0, 0 0" stroke="#fff" stroke-width="2" fill="none"></path></g></g><mask></mask><g stroke-linecap="round"><g transform="translate(1016.1517497079021 513.7473686634675) rotate(0 0.8733881098219172 34.654457682440295)" fill-rule="evenodd"><path d="M-1.2 -0.16 L-26.7 11.86 L-36.05 45.31 L-14.21 68.61 L15.83 68.25 L36.49 43.49 L30.17 15.32 L1.78 1.65" stroke="none" stroke-width="0" fill="#fff" fill-rule="evenodd"></path><path d="M-0.84 -1.3 C-8.92 4.84, -20.58 9.61, -27.15 11.95 M0.28 -0.42 C-9.08 5.03, -17.77 9.05, -27.43 13.59 M-27.29 12.68 C-29.34 22.41, -32.5 33.57, -35.27 46.31 M-27.71 12.88 C-30.05 25.41, -32.46 37.26, -34.93 45.16 M-35.7 45.83 C-28.86 54.66, -22.03 62.97, -13.78 71.28 M-35.6 44.62 C-28.54 52.58, -23.39 59.82, -16.38 69.59 M-17.29 68.17 C-7.76 69.32, 0.29 70.72, 16.41 69.71 M-14.79 69.8 C-5.85 69.95, 4.55 70.63, 16.62 71.03 M14.75 70.32 C19.33 61.86, 25.9 55.04, 37.45 46.23 M16.51 69.42 C20.55 64.25, 25.1 59.18, 34.98 45.51 M37.28 45.72 C34.91 36.14, 33.29 29.62, 29.55 11.72 M35.1 43.87 C34.51 34.74, 31.46 27.23, 28.95 12.53 M28.26 15.02 C22.95 9.85, 16.47 7.88, -1.97 -1.98 M29.62 12.51 C20.97 10.98, 15.61 6.12, 0.94 -0.98 M0 0 C0 0, 0 0, 0 0 M0 0 C0 0, 0 0, 0 0" stroke="#fff" stroke-width="2" fill="none"></path></g></g><mask></mask><g stroke-linecap="round"><g transform="translate(1003.0408819213644 534.8414908789199) rotate(0 2.847598193412523 4.928754611869408)" fill-rule="evenodd"><path d="M0.52 1.7 L1.12 7.47 L4.09 10.38 L5.07 2.69 L-0.97 0.21" stroke="none" stroke-width="0" fill="#228be6" fill-rule="evenodd"></path><path d="M0.29 0.05 C-0.29 1.95, 0.32 3.29, 0.22 6.61 M0.03 0.24 C0.22 1.91, 0.27 3.62, 0.09 6.73 M0.29 6.34 C1.54 7.62, 3.06 8.79, 5.75 9.37 M0.27 6.59 C1.52 7.22, 2.41 8.04, 5.39 9.46 M5.03 9.92 C5.15 8.09, 6.05 6.68, 5.3 2.54 M5.47 9.66 C5.38 7.9, 5.08 5.91, 5.27 1.64 M5.23 1.74 C3.4 1.55, 2.13 0.72, 0.67 0.4 M5.42 1.86 C4.12 1.59, 2.65 1.23, 0.54 0.7 M0.58 0.42 C0.41 0.25, 0.27 0.21, -0.05 -0.06 M0.63 0.48 C0.41 0.35, 0.18 0.19, -0.03 -0.01" stroke="#fff" stroke-width="1" fill="none"></path></g></g><mask></mask><g stroke-linecap="round"><g transform="translate(1014.8285052717001 534.8084723261178) rotate(0 -2.9633661181430853 4.846033073856773)" fill-rule="evenodd"><path d="M1.07 0.89 L-7.03 2.59 L-5.82 10.4 L-1.86 6.38 L0.33 0.41" stroke="none" stroke-width="0" fill="#228be6" fill-rule="evenodd"></path><path d="M-0.26 0.05 C-1.08 -0.05, -2.6 0.82, -6.05 1.86 M0.17 0.12 C-1.3 0.53, -2.98 1.05, -5.88 1.82 M-5.96 1.89 C-5.87 4.35, -5 5.66, -6.1 9.84 M-5.5 1.62 C-5.72 3.77, -5.46 5.51, -5.81 9.36 M-5.64 9.77 C-3.09 8.96, -1.86 8.04, -0.67 6.27 M-5.47 9.67 C-4.25 8.65, -2.61 7.72, -0.08 6.41 M-0.62 7 C0.07 5.03, -0.07 3.53, 0.08 0.56 M0.04 6.91 C0.14 4.87, -0.23 2.73, 0.15 -0.15 M0 0 C0 0, 0 0, 0 0 M0 0 C0 0, 0 0, 0 0" stroke="#fff" stroke-width="1" fill="none"></path></g></g><mask></mask><g stroke-linecap="round"><g transform="translate(1003.4701231077925 534.0820641644724) rotate(0 5.958303810774851 0.05946517336627721)" fill-rule="evenodd"><path d="M-1.16 0.9 L5.24 2.51 L9.74 -0.14 L5.83 -1.45 L-0.96 -1.58" stroke="none" stroke-width="0" fill="#228be6" fill-rule="evenodd"></path><path d="M0.28 -0.43 C1.85 0.51, 3.23 1.15, 5.3 1.66 M0.2 0.05 C2.12 0.71, 4.15 1.31, 5.44 1.73 M5.45 2.08 C7.55 1.12, 8.09 1.09, 11.02 0.58 M5.55 1.74 C7.41 1.17, 8.79 0.62, 11.5 0.05 M11.92 0.64 C9.19 0.04, 6.74 -1.67, 5.41 -1.51 M11.11 0.12 C9.22 -0.66, 7.46 -1.48, 5.27 -1.96 M5.72 -1.96 C3.95 -1.39, 2.38 -0.27, 0.1 0.09 M5.78 -1.58 C3.63 -0.97, 2.1 -0.75, 0.04 -0.19 M0 0 C0 0, 0 0, 0 0 M0 0 C0 0, 0 0, 0 0" stroke="#fff" stroke-width="1" fill="none"></path></g></g><mask></mask><g stroke-linecap="round"><g transform="translate(1017.9809845249474 534.8324705720003) rotate(0 2.831428705190774 5.1112530898725765)" fill-rule="evenodd"><path d="M-0.31 0.89 L-1.55 6.32 L5.58 9.89 L4.43 0.22 L2.55 -1.42" stroke="none" stroke-width="0" fill="#228be6" fill-rule="evenodd"></path><path d="M0.17 0.02 C-0.15 2.22, -0.22 4.12, 0.54 6.95 M0.04 0.14 C0.05 2.36, -0.04 4.58, -0.09 6.55 M0.55 6.48 C1.29 7.74, 3.11 8.87, 5.25 10.05 M0.19 6.57 C1.29 7.27, 3.15 8.12, 5.42 9.41 M5.17 10.22 C4.7 6.35, 5.17 4.65, 5.75 1.9 M5.14 9.32 C5.59 6.46, 5.12 3.96, 5.34 1.59 M5.42 1.72 C3.76 1.74, 2.1 0.93, 0.74 0.93 M5.29 2.02 C3.68 1.24, 1.81 0.69, 0.45 0.48 M0.57 0.42 C0.51 0.45, 0.3 0.28, 0.01 0 M0.6 0.47 C0.39 0.33, 0.15 0.12, -0.02 0.02" stroke="#fff" stroke-width="1" fill="none"></path></g></g><mask></mask><g stroke-linecap="round"><g transform="translate(1029.7686078752831 534.7994520191982) rotate(0 -2.970572719926622 4.937302263907526)" fill-rule="evenodd"><path d="M-1.6 -0.27 L-5.54 2.1 L-6.47 7.93 L1.66 4.75 L-0.2 1.03" stroke="none" stroke-width="0" fill="#228be6" fill-rule="evenodd"></path><path d="M-0.18 0.17 C-1.58 0.43, -2.2 1.11, -5.64 2.12 M-0.01 0.13 C-1.97 0.68, -3.84 1.06, -5.8 1.64 M-6.46 2.02 C-6.1 5.23, -5.53 8.36, -5.65 9.53 M-6.17 1.54 C-5.51 4.24, -5.37 6.93, -5.34 9.87 M-5.92 9.12 C-3.58 8.71, -1.21 7.35, 0.05 6.21 M-5.33 9.26 C-4.17 8.6, -2.43 7.68, -0.11 6.77 M-0.19 7.22 C-0.08 4.87, 0.03 3.5, 0.52 0.65 M-0.11 6.5 C-0.09 3.78, -0.27 1.35, -0.26 0.31 M0 0 C0 0, 0 0, 0 0 M0 0 C0 0, 0 0, 0 0" stroke="#fff" stroke-width="1" fill="none"></path></g></g><mask></mask><g stroke-linecap="round"><g transform="translate(1018.4102257113736 534.073043857553) rotate(0 5.671834713665248 0.004514597176807911)" fill-rule="evenodd"><path d="M0.33 0.41 L4.59 0.04 L13.26 -1.77 L5.3 -0.83 L0.58 -1.59" stroke="none" stroke-width="0" fill="#228be6" fill-rule="evenodd"></path><path d="M-0.25 0.04 C2.11 0.8, 3.58 1.37, 5.64 1.7 M-0.11 0.11 C1.78 0.5, 3.88 1.04, 5.77 1.86 M5.22 2.07 C7.2 1.75, 8.73 0.77, 11.58 0.41 M5.71 1.53 C7.44 1.14, 9.1 1.04, 11.59 0.1 M11.26 0.49 C9.33 -0.62, 7.04 -1.95, 5.47 -2.04 M11.12 0.04 C9.79 -0.6, 8.47 -0.83, 5.45 -1.84 M5.59 -1.78 C4.07 -0.75, 2.82 -0.19, 0.57 -0.22 M5.54 -2.06 C3.17 -1.17, 1.01 -0.17, 0.23 -0.2 M0 0 C0 0, 0 0, 0 0 M0 0 C0 0, 0 0, 0 0" stroke="#fff" stroke-width="1" fill="none"></path></g></g><mask></mask><g stroke-linecap="round"><g transform="translate(1010.5019609044994 521.1513298028864) rotate(0 2.7446920124655207 4.7697545615443175)" fill-rule="evenodd"><path d="M-0.96 -1.58 L1.97 4.69 L5.05 10.51 L5.96 0.21 L-0.49 -0.11" stroke="none" stroke-width="0" fill="#228be6" fill-rule="evenodd"></path><path d="M0.49 0.37 C0.24 2.62, 0.11 4.41, 0.33 6.57 M-0.14 -0.04 C0.08 2.2, 0.27 4.78, -0.01 6.34 M0.05 7.16 C1.71 7.55, 3.83 8.8, 5.22 9.02 M0.22 6.52 C1.56 7.64, 3.04 8.09, 5.54 9.27 M5.62 9.58 C5.69 7.1, 5.29 5.64, 5.06 2.28 M5.21 9.27 C5.54 7.96, 5.3 6.17, 5.32 1.84 M5.49 2.25 C3.93 1.78, 2.21 0.61, 1.06 0.7 M5.21 1.8 C3.97 1.66, 3.15 0.92, 0.43 0.56 M0.64 0.48 C0.46 0.25, 0.21 0.06, -0.02 0.02 M0.6 0.5 C0.38 0.31, 0.11 0.11, 0.01 0.01" stroke="#fff" stroke-width="1" fill="none"></path></g></g><mask></mask><g stroke-linecap="round"><g transform="translate(1022.2895842548332 521.1183112500845) rotate(0 -2.817025608799895 4.860086106289373)" fill-rule="evenodd"><path d="M1.92 -1.9 L-6.08 2.72 L-4.93 7.92 L-1.38 6.07 L1.62 -0.4" stroke="none" stroke-width="0" fill="#228be6" fill-rule="evenodd"></path><path d="M0.23 0.43 C-1.7 0.63, -3.34 1.06, -5.62 1.46 M0.08 -0.05 C-1.76 0.82, -4.05 0.91, -5.74 1.52 M-6.01 1.71 C-5.42 4.98, -5.64 6.95, -5.8 9.93 M-5.71 2.05 C-5.41 3.77, -5.25 5.66, -5.77 9.46 M-5.2 9.07 C-3.68 8.31, -2.03 7.84, -0.76 6.21 M-5.35 9.63 C-4.15 8.79, -2.73 8.03, -0.01 6.7 M0.25 7.31 C0.46 4.31, 0.47 2.76, -0.3 0.09 M-0.53 6.96 C0.11 4.87, -0.35 3.65, 0.29 -0.21 M0 0 C0 0, 0 0, 0 0 M0 0 C0 0, 0 0, 0 0" stroke="#fff" stroke-width="1" fill="none"></path></g></g><mask></mask><g stroke-linecap="round"><g transform="translate(1010.9312020909256 520.3919030884391) rotate(0 5.564851242814484 -0.09479148266021298)" fill-rule="evenodd"><path d="M-0.2 1.03 L6.13 0.03 L10.22 -0.45 L7.12 -2.26 L1.69 1.25" stroke="none" stroke-width="0" fill="#228be6" fill-rule="evenodd"></path><path d="M0.09 0.08 C2.23 0.52, 4.2 0.9, 5.78 1.38 M0.22 0.24 C1.56 0.26, 3.33 0.79, 5.76 1.62 M5.79 1.89 C7.82 0.57, 9.92 0.76, 11.17 0.48 M5.79 1.59 C7.45 0.94, 8.58 0.7, 11.51 0.28 M11.32 -0.04 C9.24 -0.15, 7.16 -1.62, 5.31 -1.94 M11.29 0.16 C9.84 -0.3, 8.71 -0.78, 5.54 -1.8 M6.07 -2.08 C3.87 -0.82, 0.94 -0.27, -0.38 -0.42 M5.73 -2.06 C3.6 -1.16, 2.43 -0.88, 0.03 0.04 M0 0 C0 0, 0 0, 0 0 M0 0 C0 0, 0 0, 0 0" stroke="#fff" stroke-width="1" fill="none"></path></g></g><mask></mask><g stroke-linecap="round" transform="translate(1001.5145686278647 547.9911528341455) rotate(0 5.08672262349387 5.152442554029875)"><path d="M5.42 -0.42 C6.37 -0.39, 7.45 0.52, 8.2 1.42 C8.95 2.32, 9.57 3.96, 9.93 4.98 C10.29 5.99, 10.99 6.6, 10.36 7.5 C9.73 8.41, 7.39 9.85, 6.14 10.4 C4.89 10.94, 3.76 11.04, 2.86 10.76 C1.96 10.49, 1.21 9.82, 0.72 8.75 C0.23 7.68, -0.35 5.51, -0.1 4.34 C0.14 3.17, 1.16 2.54, 2.17 1.7 C3.18 0.87, 5.23 -0.56, 5.96 -0.68 C6.69 -0.8, 6.61 0.69, 6.55 0.99 M5.79 -0.13 C6.95 -0.71, 8.84 -0.76, 9.38 -0.15 C9.92 0.46, 8.8 2.17, 9.01 3.53 C9.21 4.88, 10.84 6.79, 10.6 7.96 C10.35 9.14, 8.83 10.2, 7.52 10.56 C6.21 10.91, 3.91 10.59, 2.75 10.09 C1.58 9.59, 0.85 8.65, 0.55 7.56 C0.25 6.47, 0.99 4.63, 0.95 3.56 C0.92 2.48, -0.25 1.83, 0.32 1.11 C0.89 0.39, 3.54 -0.71, 4.38 -0.77 C5.22 -0.84, 5.36 0.47, 5.35 0.71" stroke="#228be6" stroke-width="2" fill="none"></path></g><g stroke-linecap="round"><g transform="translate(1006.6144352374668 548.1488806674323) rotate(0 -0.7105817457718331 -1.4598638609000432)"><path d="M-0.03 0.5 C-0.03 0.16, 0.11 -1.11, 0.13 -1.55 M-1.5 -0.28 C-1.72 -1.03, -1.15 -3.32, -1.05 -3.42" stroke="#228be6" stroke-width="2" fill="none"></path></g></g><mask></mask><g stroke-linecap="round"><g transform="translate(1010.0055836531283 549.0689596949377) rotate(0 0.5365751237975473 -0.16543377122278002)"><path d="M-0.45 0.48 C-0.19 0.24, 1.06 -0.66, 1.52 -0.9 M1.52 -0.32 C1.58 -0.41, 0.28 0.47, 0.31 0.57" stroke="#228be6" stroke-width="2" fill="none"></path></g></g><mask></mask><g stroke-linecap="round"><g transform="translate(1011.2936942916367 553.0384434993179) rotate(0 1.2283741121709681 0.2618579122404583)"><path d="M-0.5 -0.14 C0.07 -0.16, 2.28 0.06, 2.96 0.34 M1.43 -1.25 C1.91 -1.13, 1.86 1.61, 2.17 1.78" stroke="#228be6" stroke-width="2" fill="none"></path></g></g><mask></mask><g stroke-linecap="round"><g transform="translate(1010.3999032363445 556.9816393314835) rotate(0 0.6652736696387365 0.6919370015670836)"><path d="M0.3 -0.19 C0.78 0.29, 2.18 2.55, 2.33 2.72 M-1 -1.33 C-0.56 -1.16, 1.65 0.62, 1.87 1.12" stroke="#228be6" stroke-width="2" fill="none"></path></g></g><mask></mask><g stroke-linecap="round"><g transform="translate(1006.4829953763947 558.3749018588488) rotate(0 -0.3242982655333435 1.4606121456865822)"><path d="M0.93 1.01 C0.79 1.27, -0.4 1.26, -0.52 1.36 M-0.04 0.49 C-0.38 0.89, -1.54 2.08, -1.58 2.43" stroke="#228be6" stroke-width="2" fill="none"></path></g></g><mask></mask><g stroke-linecap="round"><g transform="translate(1003.4073026273054 556.5610317760526) rotate(0 -1.1642660931383944 0.8362953877118287)"><path d="M-0.21 -0.9 C-0.58 -0.84, -1.17 0.88, -1.28 1.37 M-1.78 1.25 C-2.34 1.98, -2.06 2.22, -1.96 2.57" stroke="#228be6" stroke-width="2" fill="none"></path></g></g><mask></mask><g stroke-linecap="round"><g transform="translate(1002.1980559054409 553.0121555271033) rotate(0 -1.2565859060212006 0.5846613916951071)"><path d="M0.51 -0.65 C0.12 -0.5, -2.08 -0.06, -2.54 0.01 M-0.69 1.62 C-1.14 2.06, -2.73 1.66, -3.02 1.55" stroke="#228be6" stroke-width="2" fill="none"></path></g></g><mask></mask><g stroke-linecap="round"><g transform="translate(1003.9593500438077 549.2003995560098) rotate(0 -0.15092976544474368 -0.15850087893193177)"><path d="M0.9 0.01 C0.67 0, -0.38 -0.72, -0.86 -0.73 M-0.09 -1.03 C-0.42 -0.8, -0.76 0.88, -1.2 0.7" stroke="#228be6" stroke-width="2" fill="none"></path></g></g><mask></mask><g stroke-linecap="round" transform="translate(1014.7534177976122 551.7948160018601) rotate(0 7.8500956972045515 7.951518122233011)"><path d="M7.88 -0.76 C9.35 -0.83, 11.35 1.12, 12.59 2.45 C13.83 3.79, 15.01 5.57, 15.31 7.23 C15.61 8.9, 15.05 10.93, 14.39 12.43 C13.74 13.94, 12.95 15.62, 11.38 16.28 C9.81 16.93, 6.82 17.21, 4.98 16.36 C3.14 15.52, 1.15 12.76, 0.32 11.2 C-0.51 9.65, -0.5 8.6, 0 7.06 C0.51 5.51, 1.73 3.21, 3.35 1.94 C4.97 0.66, 8.57 -0.35, 9.73 -0.62 C10.9 -0.89, 10.54 -0.04, 10.36 0.32 M4.52 -0.13 C6.26 -0.7, 9.25 0.27, 10.85 0.9 C12.45 1.53, 13.36 2.31, 14.13 3.66 C14.89 5.01, 15.35 7.28, 15.42 8.99 C15.49 10.71, 15.68 12.74, 14.55 13.95 C13.41 15.15, 10.24 15.96, 8.58 16.23 C6.92 16.49, 5.73 16.35, 4.58 15.53 C3.44 14.71, 2.41 12.94, 1.69 11.31 C0.97 9.68, -0.36 7.63, 0.25 5.75 C0.87 3.86, 4.59 0.99, 5.37 0 C6.16 -0.99, 5.2 -0.41, 4.96 -0.17" stroke="#228be6" stroke-width="2" fill="none"></path></g><g stroke-linecap="round"><g transform="translate(1022.6237979798225 552.0382298219284) rotate(0 0.006859260673309109 -1.3529638090418814)"><path d="M0.03 0.48 C0.07 -0.02, 1.45 -2.51, 1.44 -3.19 M-1.42 -0.31 C-1.58 -0.59, 0.15 -1.32, 0.78 -1.68" stroke="#228be6" stroke-width="2" fill="none"></path></g></g><mask></mask><g stroke-linecap="round"><g transform="translate(1027.8571951112917 553.4581437723272) rotate(0 1.909090944823447 -0.8438846539134204)"><path d="M0.55 -0.06 C0.91 -0.41, 1.67 -1.38, 2.21 -1.62 M-0.62 -1.14 C0.11 -1.37, 3.78 -0.45, 4.44 -0.32" stroke="#228be6" stroke-width="2" fill="none"></path></g></g><mask></mask><g stroke-linecap="round"><g transform="translate(1029.8450746418494 559.5840582440477) rotate(0 1.9114995204101888 0.04678996636377519)"><path d="M-0.92 -0.45 C-0.22 -0.36, 3.79 0.3, 4.74 0.47 M0.8 -1.73 C1.35 -1.46, 3.53 1.24, 4.13 1.82" stroke="#228be6" stroke-width="2" fill="none"></path></g></g><mask></mask><g stroke-linecap="round"><g transform="translate(1028.4657296614623 565.6694037457565) rotate(0 1.18158114225389 1.1080112033985472)"><path d="M0.64 -0.34 C1.27 0.13, 2.51 1.7, 2.84 2.38 M-0.48 -1.57 C0.13 -0.88, 1.82 3.19, 2.26 3.79" stroke="#228be6" stroke-width="2" fill="none"></path></g></g><mask></mask><g stroke-linecap="round"><g transform="translate(1022.4209531297656 567.8195591563605) rotate(0 -0.0014684085210774356 1.5865453113167405)"><path d="M0.69 -0.25 C0.59 0.57, 0.06 4, 0.03 4.61 M-0.4 -1.43 C-0.67 -0.89, -0.76 2.06, -0.65 3.07" stroke="#228be6" stroke-width="2" fill="none"></path></g></g><mask></mask><g stroke-linecap="round"><g transform="translate(1017.6743836384321 565.0203002255743) rotate(0 -0.8403915217811573 2.5646286121910578)"><path d="M0.52 1.12 C0.11 1.66, -1.42 2.8, -1.77 3 M-0.67 0.66 C-1.21 1.42, -2.02 4.05, -2.2 4.47" stroke="#228be6" stroke-width="2" fill="none"></path></g></g><mask></mask><g stroke-linecap="round"><g transform="translate(1015.8082110179075 559.5434892740362) rotate(0 -1.7495513351568661 -0.4766661402862553)"><path d="M0.99 -0.12 C0.21 -0.45, -2.97 -0.82, -4.15 -0.82 M0.05 -1.23 C-0.83 -0.91, -3.88 -0.1, -4.49 0.28" stroke="#228be6" stroke-width="2" fill="none"></path></g></g><mask></mask><g stroke-linecap="round"><g transform="translate(1018.5263320086724 553.6609886223843) rotate(0 -1.3680600189850338 0.17740106961079505)"><path d="M1.16 -0.82 C0.35 -0.96, -3.3 -1.07, -3.9 -0.97 M0.31 1.36 C-0.2 1.42, -1.07 1.09, -1.59 0.48" stroke="#228be6" stroke-width="2" fill="none"></path></g></g><mask></mask><g transform="translate(995.9674505338626 583.3586890065645) rotate(0 20.857101440429688 12.20488343145621)"><text x="20.857101440429688" y="0" font-family="Virgil, Segoe UI Emoji" font-size="19.527813490329915px" fill="#fff" text-anchor="middle" style="white-space: pre;" direction="ltr" dominant-baseline="text-before-edge">node</text></g><g transform="translate(972.6146883283268 473.9008665341355) rotate(0 48.679954528808594 12.5)"><text x="48.679954528808594" y="0" font-family="Virgil, Segoe UI Emoji" font-size="20px" fill="#000000" text-anchor="middle" style="white-space: pre;" direction="ltr" dominant-baseline="text-before-edge">worker-02</text></g><g stroke-linecap="round"><g transform="translate(537.1316964285647 327.8852415341353) rotate(0 190.32817027749752 -16.235392056299133)"><path d="M-0.46 1.08 C63.19 -4.32, 317.23 -28.13, 381.12 -33.55" stroke="#1e1e1e" stroke-width="2.5" fill="none" stroke-dasharray="8 10"></path></g></g><mask></mask><g stroke-linecap="round"><g transform="translate(351.1718749999932 249.87184867699239) rotate(0 43.55644357534379 32.72956649756861)"><path d="M-0.74 0.41 C13.84 11.1, 73.1 53.94, 87.85 65.05" stroke="#1e1e1e" stroke-width="2.5" fill="none" stroke-dasharray="8 10"></path></g></g><mask></mask><g stroke-linecap="round"><g transform="translate(1040.3683035714216 290.78702724842105) rotate(0 46.42226274194468 8.883878908732072)"><path d="M-0.6 0.86 C14.93 3.88, 78.11 14.3, 93.45 16.9" stroke="#1e1e1e" stroke-width="2.5" fill="none" stroke-dasharray="8 10"></path></g></g><mask></mask><g stroke-linecap="round"><g transform="translate(488.1262423972953 260.1302569421306) rotate(0 2.505527421616307 57.81237477850681)"><path d="M-1.34 1.06 C-15.49 8.98, -28.77 13.68, -46.23 20 M-0.51 -0.71 C-18.8 8.99, -35.56 18.04, -45.45 22.63 M-44.99 20.69 C-50.71 36.86, -51.25 52.52, -56.01 72.72 M-44.64 22.84 C-48.16 37.94, -51.75 54.1, -56.52 74.06 M-54.3 72.51 C-50.52 84.18, -41.01 95.14, -24.87 114.67 M-55.72 73.76 C-45.33 87.05, -34.63 99.95, -22.57 114.45 M-23.03 116.72 C-10.23 116.85, 0.62 116.64, 27.28 114.7 M-23.85 115.43 C-5.09 116.09, 12.19 116.19, 28.27 115.53 M26.62 115.93 C36.02 102.6, 46.72 91.57, 61.53 75.83 M27.23 115.45 C41.71 99.32, 53.66 82.96, 59.94 73.66 M60.45 75.94 C57.55 62.06, 57.68 51.18, 51.41 26.55 M60.35 73.54 C56.85 55.01, 54.53 37.24, 51.72 26.32 M51.73 25.04 C40.97 20.45, 28.29 12.49, 0.3 0.41 M52.2 26.02 C35.75 16.36, 17.63 7.35, 1.46 -1.13" stroke="#aaa" stroke-width="4" fill="none"></path></g></g><mask></mask><g stroke-linecap="round"><g transform="translate(489.3883469492248 259.13701349185305) rotate(0 0.5066442134850604 58.25970727725695)" fill-rule="evenodd"><path d="M-0.44 -1.06 L-45.62 23.5 L-58.66 73.4 L-24.98 114.57 L25.22 115.77 L58.76 73.99 L48.73 22.39 L1.27 -1.72" stroke="none" stroke-width="0" fill="#228be6" fill-rule="evenodd"></path><path d="M-0.1 1.77 C-10.61 5.29, -25.61 10.17, -44.14 22.68 M-0.94 0.39 C-13.08 6.81, -26.54 13.08, -46.23 21.32 M-47.92 22.45 C-49.39 42.07, -53.95 58.1, -56.95 74.04 M-45.51 21.9 C-49.24 39.77, -53.83 58.05, -57.84 73.29 M-59.18 74.23 C-50.26 84.6, -44.93 91.55, -25.04 115.64 M-57.41 73.81 C-45.85 88.26, -33.46 103.36, -26.18 115.65 M-24.9 116.74 C-10.35 115.97, 5.91 113.56, 26.44 114.43 M-24.92 115.48 C-12.89 115.01, -0.64 114.45, 25.37 114.84 M24.47 113.7 C34.63 103.68, 43.53 96.08, 60.19 73.34 M26.45 115.72 C36.3 102.52, 46.7 87.93, 57.79 73.32 M57.35 73.83 C55.65 57.09, 49.67 37.57, 48.55 22.74 M58.07 72.83 C55.06 55.25, 50.11 37.56, 46.02 22.16 M46.8 22.3 C34.45 14.94, 25.1 13.39, 0.72 -0.04 M47.79 21.25 C33.02 14.91, 19.88 9.03, 0.05 -0.22 M0 0 C0 0, 0 0, 0 0 M0 0 C0 0, 0 0, 0 0" stroke="#fff" stroke-width="2" fill="none"></path></g></g><mask></mask><g stroke-linecap="round"><g transform="translate(533.9821991449894 274.2242475479188) rotate(180 -41.03286712211411 34.48138409474171)" fill-rule="evenodd"><path d="M1.26 0.39 L0.11 17.56 L-10.22 14.7 L-41.3 57.39 L-59.75 57.67 L-57.16 69.96 L-80.68 49.56 L-60.46 34.34 L-59.14 44.02 L-50.58 41.7 L-17.6 -1.7 L1.66 -1.87" stroke="none" stroke-width="0" fill="#fff" fill-rule="evenodd"></path><path d="M1.47 -0.7 C-0.65 4.04, 1.48 11.53, -0.21 14.95 M0.18 0.62 C-0.17 4.16, -0.3 6.56, 0.47 15.92 M0.28 16.47 C-2.45 15.05, -4.77 15.66, -9.85 16.12 M0.12 15.59 C-4.29 15.64, -8.4 15.1, -10.75 15.76 M-10.51 17.04 C-19.82 25.22, -25.05 36.07, -41.26 59.14 M-10.56 14.78 C-18.97 27.34, -29.44 40.82, -42.4 58.66 M-43.14 59.65 C-49.33 57.68, -54.64 57.77, -59.69 57.55 M-42.14 58.78 C-48 58.29, -54.46 58.05, -59.08 58.1 M-58.44 57.88 C-58.26 62.64, -57.89 64.68, -58.71 68.58 M-58.81 58.81 C-58.93 60.96, -58.99 63.61, -58.72 69.17 M-57.57 70.64 C-68.44 62.22, -75.17 55.73, -80.8 51.01 M-58.24 68.77 C-64.83 64.43, -71.06 60.25, -82.51 50.99 M-83.65 49.36 C-77.55 48.63, -71.31 42.83, -60.86 33.8 M-81.85 50.66 C-75.93 46.74, -70.87 41.78, -59.75 34.15 M-61.18 32.58 C-60.16 35.14, -59.68 38.01, -59.67 43.45 M-61.04 33.05 C-60.16 36.55, -60.72 38.95, -60.11 43.68 M-60.21 44.25 C-57.13 43.62, -53.86 43.82, -50.4 44.12 M-59.67 44.34 C-57.19 43.9, -54.05 43.36, -50.19 43.53 M-51.36 42.64 C-42.27 34.31, -33.86 23.49, -17.69 -1.67 M-49.8 44 C-40.75 31.98, -33.64 20.47, -17.77 -0.27 M-16.95 -1.6 C-13.26 1.77, -7.84 0.46, 1.59 1.71 M-17.63 0.57 C-12.31 -0.07, -7.9 -0.56, -0.66 -0.81 M0 0 C0 0, 0 0, 0 0 M0 0 C0 0, 0 0, 0 0" stroke="#228be6" stroke-width="2" fill="none"></path></g></g><mask></mask><g stroke-linecap="round"><g transform="translate(453.1407150500204 285.6496706251472) rotate(0 40.56872826796666 34.27227166813526)" fill-rule="evenodd"><path d="M0.11 1.8 L0.09 15.13 L11.53 14.15 L41.49 57.67 L60.54 59.36 L60.07 67.6 L82.01 52.1 L61.56 33.42 L59.96 42.42 L50.41 41.69 L19.13 -2.01 L-1.1 -0.11" stroke="none" stroke-width="0" fill="#fff" fill-rule="evenodd"></path><path d="M-0.64 -1.53 C1.64 6.53, -0.06 11.43, -1.12 14.27 M-0.02 0.55 C-0.12 4.69, 0.51 10.86, -0.49 15.01 M0 15.14 C3.37 15.64, 6.94 16.21, 11.25 15.86 M-0.26 15.83 C2.5 15.37, 5.22 15.99, 9.95 14.81 M8.67 15.19 C21.09 29.57, 32.07 43.19, 42.25 58.14 M10.97 14.97 C19.14 29.03, 29.38 41.17, 43.48 58.91 M42.13 57.53 C49.55 57.51, 54.21 57.45, 59.73 59.65 M42.93 58.19 C48.14 57.92, 53.73 58.05, 58.68 58.11 M59.3 59.5 C59.84 60.56, 59.14 62.34, 58.43 70.07 M58.46 58.35 C58.54 61.68, 59.14 65.2, 59.49 68.93 M58.42 69.3 C67.52 64.2, 73.83 57.79, 80.69 50.82 M58.74 69.07 C62.87 65.56, 67.88 61.39, 81.07 51.07 M81.1 52.76 C76 45.29, 68.5 40.17, 59.94 35.16 M82.25 51.22 C77.06 46.79, 73.21 43.77, 60.1 34.24 M61 32.61 C61.04 36.23, 60.55 39.41, 59.85 44.99 M60.95 33.52 C59.89 36.34, 60.06 39.99, 60.1 44.32 M59.84 43.78 C57.94 44.08, 55.86 44.54, 50.74 43.84 M59.78 44.05 C57.86 43.66, 56.3 44.01, 50.31 43.64 M50.94 44.98 C42.87 33.84, 33.68 19.54, 16.85 -0.04 M51.46 43.38 C42.19 34.44, 35.63 24.62, 17.09 -1.03 M17.1 1.6 C14.02 0.13, 11.21 1.49, -0.78 1.53 M18.17 0.06 C11.23 -0.28, 3.07 -0.7, -0.42 0.39 M0 0 C0 0, 0 0, 0 0 M0 0 C0 0, 0 0, 0 0" stroke="#228be6" stroke-width="2" fill="none"></path></g></g><mask></mask><g stroke-linecap="round"><g transform="translate(1183.4394842293195 253.7582879426568) rotate(0 0.5899544226997477 57.366373649414584)"><path d="M0.99 0.21 C-10.33 4.37, -18.93 11.39, -47.25 23.91 M0.27 -0.71 C-13.79 6.13, -28.29 12.9, -46.17 23.12 M-45.13 22.74 C-51.97 37.16, -54.08 54.78, -56.79 75.2 M-46.2 21.97 C-48.59 34.17, -51.05 46.55, -56.99 74.49 M-58.09 74.23 C-50.6 81.43, -41.9 92.36, -26.6 116.6 M-57 74.72 C-49.04 85.26, -41.39 94.07, -25.9 114.96 M-23.76 115.18 C-16.3 115.3, -4.08 114.55, 24.83 113.81 M-25.8 115.9 C-13.82 115.71, -1.68 116.62, 25.15 116.47 M27.19 116.05 C39.95 98.09, 49.82 80.51, 57.26 74.59 M26.28 116.34 C32.55 107.66, 39.93 98.29, 58.45 73.9 M59.27 72.27 C54.18 60.06, 54.32 46.51, 48.15 22.37 M57.91 74.3 C53.71 57.38, 50.39 43.03, 47.29 22.52 M47.74 22.05 C36.4 15.79, 25.89 10.89, 1.66 -1.87 M46.24 22.95 C34.67 16.25, 24.26 11.07, 0.13 -0.34" stroke="#aaa" stroke-width="2" fill="none"></path></g></g><mask></mask><g stroke-linecap="round"><g transform="translate(1182.1177587351012 252.37376464711554) rotate(0 -0.48665507798409635 58.0628322544747)" fill-rule="evenodd"><path d="M-1.63 1.44 L-44.43 21.59 L-57.35 74.61 L-26.63 114.67 L26.55 114.61 L58.53 72.6 L47.25 21.26 L1.69 1.02" stroke="none" stroke-width="0" fill="#228be6" fill-rule="evenodd"></path><path d="M0.1 -0.43 C-9.67 7.26, -24.52 13.07, -45.84 21.27 M0.56 -0.39 C-10.05 4.21, -20.91 10.67, -45.77 21.53 M-48 20.35 C-48.93 33.63, -50.79 48.55, -58.66 73.4 M-45.94 22.42 C-49.65 40.14, -53.29 56.94, -58.05 74.53 M-57.64 72.91 C-43.84 90.65, -34.29 106.8, -26.5 114.08 M-56.91 74.72 C-48.69 83.9, -40.35 95.8, -26.43 115.65 M-27.37 115.54 C-6.95 114.83, 12.14 113.57, 24.09 116.18 M-25.32 115.13 C-13.61 115.52, -3.88 115.57, 26.52 115.41 M27.05 114.83 C36.2 97.67, 49.2 84.44, 56.38 72.96 M25.62 116.56 C37.68 100.56, 49.02 85.38, 57.69 73.06 M56.65 72.78 C55.77 55.71, 52.12 41.66, 47 23.79 M57.64 73.16 C54.49 58.92, 51.88 42.79, 46.11 22.11 M46.85 20.45 C30.3 12.77, 15.73 4.79, -1.1 -0.11 M46.15 21.83 C35.15 16.75, 22.71 10.63, -0.79 -0.13 M0 0 C0 0, 0 0, 0 0 M0 0 C0 0, 0 0, 0 0" stroke="#fff" stroke-width="2" fill="none"></path></g></g><mask></mask><g stroke-linecap="round"><g transform="translate(1159.2714031569935 295.64231835353974) rotate(0 10.889340129096354 19.818820926360218)" fill-rule="evenodd"><path d="M-1.41 -1.57 L-0.7 28.41 L19.84 40.18 L22.49 7.5 L4.38 2.06" stroke="none" stroke-width="0" fill="#fff" fill-rule="evenodd"></path><path d="M1.92 1.57 C-1.15 10.15, 0.33 15.91, -1.27 27.59 M0.31 -0.48 C0.06 7.16, 0.51 11.76, -0.38 27.5 M-0.23 25.99 C7.53 32.5, 12.69 34.61, 22.17 38.58 M0.36 27.97 C6.43 30.97, 11.37 34.35, 22.37 38.47 M23.05 40.11 C20.79 30.57, 21.06 18.01, 21.5 7.78 M21.45 38.15 C21.38 26.77, 21.05 15.26, 22.86 8.3 M21.5 7.13 C15.26 3.97, 8.38 4.64, 0.9 1.55 M23.01 8.37 C13.84 6.14, 7.41 2.91, 3.39 2.76 M2.33 1.66 C1.57 1.47, 0.6 0.57, 0.19 0.22 M2.68 2.02 C1.65 1.29, 0.56 0.42, 0.02 0.08" stroke="#228be6" stroke-width="1" fill="none"></path></g></g><mask></mask><g stroke-linecap="round"><g transform="translate(1207.681365872255 295.5067162170824) rotate(0 -11.774337004841527 20.376942142583744)" fill-rule="evenodd"><path d="M-0.91 1.36 L-25.85 8.2 L-22.25 39.16 L0.72 27.42 L-0.62 1.23" stroke="none" stroke-width="0" fill="#fff" fill-rule="evenodd"></path><path d="M-1.22 1.75 C-6.46 1.24, -14.84 4.59, -25.54 8.07 M-0.14 0.97 C-6.02 1.07, -13.17 3.96, -23.83 5.95 M-23.72 8.29 C-25.35 13.23, -22.96 20.08, -23.01 39.23 M-23.92 7.57 C-24.45 18.1, -22.29 27.46, -22.45 38.84 M-23.65 40.75 C-18.19 35.15, -12.44 33.39, 0.65 27.88 M-22.95 39.11 C-15.13 35.43, -5.2 31.06, -0.95 26.44 M-1.84 25.55 C-2.15 18.85, -1.95 8.77, 2 0.54 M-1.53 28.2 C-0.05 18.32, 0.18 10.49, 0.23 0.73 M0 0 C0 0, 0 0, 0 0 M0 0 C0 0, 0 0, 0 0" stroke="#228be6" stroke-width="1" fill="none"></path></g></g><mask></mask><g stroke-linecap="round"><g transform="translate(1161.0342309309385 292.52346921502146) rotate(0 23.366727221568226 -0.3197540734125255)" fill-rule="evenodd"><path d="M-1.73 1.26 L23.17 6.75 L48.38 0.64 L21.96 -6.44 L-1.17 -1.04" stroke="none" stroke-width="0" fill="#fff" fill-rule="evenodd"></path><path d="M0.19 -0.88 C7.11 2.85, 15.79 5.96, 22.01 7.27 M0.26 -0.63 C5.16 1.91, 11.78 2.15, 21.88 6.43 M21.31 6.19 C29.26 4.64, 34.16 3.64, 47.11 0.85 M21.92 7.32 C32.91 3.65, 41.62 1.49, 46.11 1.29 M45.67 -0.28 C37.39 -1.81, 31.09 -4.6, 24.31 -7.88 M45.74 1.29 C42 -0.36, 36.02 -4, 22.9 -7.96 M21.07 -7.07 C14.4 -6.08, 11.59 -2.92, 0.45 1.82 M23.51 -7.84 C14.37 -3.62, 4.8 -0.64, -0.38 -0.76 M0 0 C0 0, 0 0, 0 0 M0 0 C0 0, 0 0, 0 0" stroke="#228be6" stroke-width="1" fill="none"></path></g></g><mask></mask><g transform="translate(1166.9498046917843 333.71164961807835) rotate(0 16.15998077392578 12.5)"><text x="16.15998077392578" y="0" font-family="Virgil, Segoe UI Emoji" font-size="20px" fill="#fff" text-anchor="middle" style="white-space: pre;" direction="ltr" dominant-baseline="text-before-edge">pod</text></g><g transform="translate(437.0801249912738 380.2847951055637) rotate(0 57.439964294433594 25)"><text x="57.439964294433594" y="0" font-family="Virgil, Segoe UI Emoji" font-size="20px" fill="#000000" text-anchor="middle" style="white-space: pre;" direction="ltr" dominant-baseline="text-before-edge">gateway &amp; </text><text x="57.439964294433594" y="25" font-family="Virgil, Segoe UI Emoji" font-size="20px" fill="#000000" text-anchor="middle" style="white-space: pre;" direction="ltr" dominant-baseline="text-before-edge">httproute</text></g><g transform="translate(947.8498589651854 343.47675939127805) rotate(0 33.109962463378906 12.5)"><text x="33.109962463378906" y="0" font-family="Virgil, Segoe UI Emoji" font-size="20px" fill="#1e1e1e" text-anchor="middle" style="white-space: pre;" direction="ltr" dominant-baseline="text-before-edge">service</text></g><g transform="translate(1166.1168049403527 372.7959558198496) rotate(0 16.15998077392578 12.5)"><text x="16.15998077392578" y="0" font-family="Virgil, Segoe UI Emoji" font-size="20px" fill="#1e1e1e" text-anchor="middle" style="white-space: pre;" direction="ltr" dominant-baseline="text-before-edge">pod</text></g></svg>